<svg xmlns="http://www.w3.org/2000/svg" viewBox="0 0 758.66669 524" height="524" width="758.667"><defs><clipPath id="a"><path d="M0 393h569V0H0v393z"/></clipPath></defs><g clip-path="url(#a)" transform="matrix(1.33333 0 0 -1.33333 0 524)"><path d="M33.51 33.992V349c0 13.807 11.194 25 25 25h458.27c13.81 0 25-11.193 25-25V33.992" fill="#fff" stroke="#1dc9b1" stroke-width="2.381" stroke-linejoin="round" stroke-miterlimit="10"/><path d="M48.067 17.014c-2.76 0-35.024 2-35.024 12a5 5 0 0 0 5 5H557.25a5 5 0 0 0 5-5c0-10.25-32.262-12-35.024-12H48.066z" fill="#fff"/><path d="M48.067 17.014c-2.76 0-35.024 2-35.024 12a5 5 0 0 0 5 5H557.25a5 5 0 0 0 5-5c0-10.25-32.262-12-35.024-12H48.066z" fill="none" stroke="#1dc9b1" stroke-width="2.381" stroke-linejoin="round" stroke-miterlimit="10"/></g></svg>