<svg xmlns="http://www.w3.org/2000/svg" viewBox="0 0 276 524" height="524" width="276"><defs><clipPath id="a"><path d="M0 393h207V0H0v393z"/></clipPath></defs><g clip-path="url(#a)" transform="matrix(1.33333 0 0 -1.33333 0 524)"><path d="M189.25 44c0-13.807-11.193-25-25-25h-120c-13.807 0-25 11.193-25 25v305c0 13.807 11.193 25 25 25h120c13.807 0 25-11.193 25-25V44z" fill="#fff"/><path d="M189.25 44c0-13.807-11.193-25-25-25h-120c-13.807 0-25 11.193-25 25v305c0 13.807 11.193 25 25 25h120c13.807 0 25-11.193 25-25V44z" fill="none" stroke="#1dc9b1" stroke-width="2.381" stroke-linejoin="round" stroke-miterlimit="10"/><path d="M117.25 44.003c0-7.18-5.82-13-13-13s-13 5.82-13 13 5.82 13 13 13 13-5.82 13-13" fill="#fff"/><path d="M117.25 44.003c0-7.18-5.82-13-13-13s-13 5.82-13 13 5.82 13 13 13 13-5.82 13-13z" fill="none" stroke="#1dc9b1" stroke-width="2.381" stroke-linejoin="round" stroke-miterlimit="10"/></g></svg>